<svg xmlns="http://www.w3.org/2000/svg" viewBox="0 0 100 100">
  <rect width="100" height="100" rx="24" fill="#1a261f" />
  <g transform="translate(50 50) scale(0.9) translate(-50 -50)" fill="#dba898">
    <path d="M50 51 C 35 41, 32 18, 50 7 C 68 18, 65 41, 50 51 Z" transform="rotate(0 50 50)" />
    <path d="M50 51 C 35 41, 32 18, 50 7 C 68 18, 65 41, 50 51 Z" transform="rotate(72 50 50)" />
    <path d="M50 51 C 35 41, 32 18, 50 7 C 68 18, 65 41, 50 51 Z" transform="rotate(144 50 50)" />
    <path d="M50 51 C 35 41, 32 18, 50 7 C 68 18, 65 41, 50 51 Z" transform="rotate(216 50 50)" />
    <path d="M50 51 C 35 41, 32 18, 50 7 C 68 18, 65 41, 50 51 Z" transform="rotate(288 50 50)" />
  </g>
  <circle cx="50" cy="50" r="9" fill="#1a261f" />
  <circle cx="50" cy="50" r="3.6" fill="#f0c2b0" />
</svg>
